<svg width="45" height="48" viewBox="0 0 45 48" fill="none" xmlns="http://www.w3.org/2000/svg">
<g clip-path="url(#clip0_579_534)">
<path d="M0.500917 19.5626C0.880773 19.0618 1.20883 18.4921 1.65775 18.0604C3.21171 16.541 5.07646 16.0921 7.13113 16.7309C9.15128 17.3525 10.3944 18.7683 10.8952 20.823C10.9297 20.9611 10.9642 21.082 10.9988 21.2547C12.3973 21.341 13.7959 21.4273 15.1772 21.5136C16.4376 21.6 17.698 21.6518 18.9585 21.7554C19.252 21.7726 19.3729 21.7036 19.4592 21.41C20.5642 17.577 23.8966 15.3324 27.8506 15.7985C28.5067 15.8849 29.1455 16.1266 29.7844 16.3165C29.9916 16.3856 30.1297 16.4029 30.2678 16.1784C31.7182 13.9683 33.1858 11.7583 34.6534 9.56544C34.6707 9.53091 34.688 9.47911 34.7225 9.41005C34.0664 8.70214 33.5829 7.89062 33.3239 6.94098C32.288 3.14242 35.534 -0.535274 39.4362 0.0517762C39.5398 0.0517762 39.6434 0.0517762 39.747 0.0517762C40.1786 0.189906 40.6103 0.345301 41.0419 0.483431C41.6808 1.00142 42.4232 1.45034 42.9412 2.07192C44.4952 3.9194 44.5815 6.5266 43.252 8.54674C41.9398 10.5496 39.5225 11.4647 37.1743 10.8431C36.9671 10.7913 36.7772 10.705 36.5354 10.6359C34.9815 12.9841 33.4448 15.2978 31.8908 17.6288C33.6693 19.3036 34.5671 21.3755 34.3944 23.8101C34.239 26.2273 33.1167 28.1611 31.0966 29.6115C32.357 32.1151 33.6002 34.6187 34.8434 37.1223C36.5527 36.7424 38.1239 36.9669 39.5225 37.9856C40.6103 38.7626 41.3354 39.8331 41.6635 41.128C42.3196 43.7698 41.0074 46.4288 38.5211 47.5338C36.052 48.6216 33.1858 47.7583 31.6837 45.4791C30.2851 43.3726 30.3887 40.1784 32.8405 38.1583C31.5973 35.6374 30.3542 33.1338 29.0937 30.6302C24.0347 32.1151 19.5628 28.4374 19.2002 23.9482C18.3024 23.8964 17.4045 23.8273 16.4894 23.7755C14.7283 23.6719 12.9671 23.5683 11.206 23.4302C10.8952 23.4129 10.7916 23.4993 10.688 23.7755C9.73833 26.469 6.87214 28.0403 4.19588 27.3496C1.38149 26.6244 -0.362392 24.0172 0.0692625 21.1165C0.0692625 21.0302 0.0692625 20.9439 0.0692625 20.8575C0.207392 20.4259 0.362788 19.9942 0.500917 19.5626ZM21.7038 21.5827C20.7369 24.4489 22.239 27.5395 25.0707 28.4892C27.9196 29.4561 31.0621 27.9194 32.0117 25.0877C32.9613 22.2388 31.4419 19.1654 28.6103 18.1985C25.7613 17.2316 22.6707 18.7338 21.7211 21.5827H21.7038ZM35.2923 45.6518C37.0362 46.2388 38.9354 45.2892 39.5225 43.5453C40.1095 41.8014 39.1599 39.9021 37.4333 39.3151C35.6721 38.7108 33.7556 39.6777 33.1858 41.4388C32.616 43.1827 33.5657 45.082 35.3096 45.6518H35.2923ZM41.8362 6.59566C42.4232 4.78271 41.4736 2.9525 39.6952 2.36545C37.9513 1.79566 36.052 2.76257 35.4995 4.50645C34.9297 6.28487 35.8966 8.14962 37.675 8.73667C39.4016 9.28919 41.2836 8.33955 41.8362 6.59566ZM4.40308 25.1223C6.12969 25.7439 8.04624 24.846 8.65056 23.1539C9.28941 21.3583 8.40883 19.459 6.61315 18.8201C4.93833 18.2158 2.98725 19.1309 2.4002 20.7885C1.74408 22.6187 2.60739 24.4834 4.40308 25.1223Z" fill="white"/>
<path d="M24.6908 22.377C23.9829 22.0489 23.7584 21.2029 24.2246 20.6158C25.0189 19.5971 27.1944 19.2 28.2994 19.8561C28.6966 20.0978 28.8865 20.6331 28.7484 21.082C28.593 21.5482 28.1268 21.9108 27.6606 21.8072C26.8664 21.6173 26.1757 21.7554 25.5196 22.2389C25.3297 22.377 24.9843 22.3425 24.7081 22.377H24.6908Z" fill="white"/>
</g>
<defs>
<clipPath id="clip0_579_534">
<rect width="44.2014" height="48" fill="white"/>
</clipPath>
</defs>
</svg>
