<svg width="48" height="48" viewBox="0 0 48 48" fill="none" xmlns="http://www.w3.org/2000/svg">
<g clip-path="url(#clip0_579_521)">
<path d="M27.4663 17.9262C27.4663 21.7472 27.4663 25.5872 27.4663 29.4082C27.4663 29.6743 27.5405 29.8454 27.7262 30.0165C29.1742 31.3282 30.1581 32.944 30.715 34.826C31.0863 36.0806 31.2162 37.3733 31.0677 38.666C30.7893 40.9852 29.991 43.0573 28.3574 44.7492C27.6334 45.4905 26.8722 46.1939 25.9626 46.6882C24.3104 47.6006 22.5282 48.1139 20.6347 47.9999C17.9243 47.8478 15.6038 46.8022 13.7473 44.7492C13.0419 43.9698 12.4479 43.1333 12.0023 42.1828C11.5753 41.2894 11.3154 40.3389 11.1298 39.3503C10.8142 37.6585 10.9998 36.0046 11.5196 34.3888C12.0951 32.6399 13.079 31.1571 14.4528 29.9404C14.6013 29.8074 14.6384 29.6933 14.6384 29.5032C14.6384 21.8802 14.6384 14.2763 14.6384 6.65332C14.6384 4.41015 15.5295 2.60421 17.2931 1.29253C19.2795 -0.171236 21.4515 -0.380345 23.6792 0.60817C25.7027 1.50164 26.8722 3.13649 27.3178 5.32263C27.4291 5.83589 27.4663 6.36817 27.4663 6.88144C27.4663 10.5694 27.4663 14.2383 27.4663 17.9262ZM16.4948 18.1543C16.4948 22.0513 16.4948 25.9674 16.4948 29.8644C16.4948 30.3777 16.3278 30.7769 15.9194 31.081C14.7312 31.9935 13.9516 33.2102 13.3761 34.5979C12.8748 35.8525 12.7449 37.1642 12.8563 38.4949C13.0048 40.3579 13.7288 41.9927 14.954 43.3424C16.7733 45.3575 19.0567 46.27 21.7299 46.0799C23.8648 45.9278 25.647 44.9963 27.095 43.4185C28.3759 42.0117 29.0628 40.3199 29.2299 38.3808C29.3784 36.746 29.0628 35.2062 28.3388 33.7424C27.8004 32.6589 27.0579 31.7654 26.1297 31.024C25.7584 30.7199 25.6099 30.3587 25.6099 29.8644C25.6099 22.0513 25.6099 14.2383 25.6099 6.4252C25.6099 6.08302 25.5727 5.74084 25.4985 5.39866C24.9787 3.32659 22.9552 1.44461 20.2634 1.90084C18.1842 2.24302 16.4948 4.27708 16.4948 6.44421C16.4948 10.3412 16.4948 14.2193 16.4948 18.1163V18.1543Z" fill="white" stroke="white" stroke-width="0.25"/>
<path d="M32.9245 5.62691C32.0705 5.62691 31.198 5.62691 30.3441 5.62691C30.0842 5.62691 29.8243 5.56988 29.6201 5.37979C29.1188 4.94256 29.2488 4.10612 29.8614 3.83998C30.0285 3.78295 30.1956 3.74493 30.3626 3.74493C32.0891 3.74493 33.797 3.74493 35.5235 3.74493C35.8576 3.74493 36.1547 3.83998 36.3774 4.10612C36.7858 4.61939 36.5445 5.36078 35.9133 5.55087C35.7648 5.58889 35.6163 5.6079 35.4678 5.6079C34.6138 5.6079 33.7599 5.6079 32.9059 5.6079L32.9245 5.62691Z" fill="white"/>
<path d="M32.9245 16.8808C32.0705 16.8808 31.198 16.8808 30.3441 16.8808C30.0842 16.8808 29.8243 16.8238 29.6201 16.6337C29.1188 16.1965 29.2488 15.36 29.8614 15.0939C30.0285 15.0369 30.1956 14.9988 30.3626 14.9988C32.0891 14.9988 33.797 14.9988 35.5235 14.9988C35.8576 14.9988 36.1547 15.0939 36.3774 15.36C36.7858 15.8733 36.5445 16.6147 35.9319 16.8048C35.7834 16.8428 35.6349 16.8618 35.4863 16.8618C34.6324 16.8618 33.7784 16.8618 32.9245 16.8618V16.8808Z" fill="white"/>
<path d="M32.9243 28.1346C32.0703 28.1346 31.1978 28.1346 30.3438 28.1346C30.0654 28.1346 29.8055 28.0776 29.6013 27.8875C29.1 27.4503 29.2486 26.6329 29.8426 26.3667C29.9911 26.3097 30.1582 26.2717 30.3253 26.2717C32.0517 26.2717 33.7968 26.2717 35.5232 26.2717C35.8574 26.2717 36.173 26.3667 36.3772 26.6709C36.5814 26.956 36.6185 27.2602 36.47 27.5834C36.3029 27.9445 36.0059 28.0966 35.6346 28.1536C35.5604 28.1536 35.4861 28.1536 35.4119 28.1536C34.5765 28.1536 33.7411 28.1536 32.9057 28.1536L32.9243 28.1346Z" fill="white"/>
<path d="M32.0145 11.2538C31.4576 11.2538 30.8821 11.2538 30.3252 11.2538C30.0653 11.2538 29.8054 11.1968 29.6012 11.0067C29.0999 10.5695 29.2299 9.73305 29.861 9.48592C30.0096 9.42889 30.1766 9.39087 30.3437 9.39087C31.4576 9.39087 32.59 9.39087 33.7038 9.39087C34.038 9.39087 34.335 9.48592 34.5578 9.77107C34.9476 10.2843 34.7063 11.0257 34.0937 11.2158C33.9637 11.2538 33.8152 11.2728 33.6667 11.2728C33.1098 11.2728 32.5714 11.2728 32.0145 11.2728V11.2538Z" fill="white"/>
<path d="M32.0145 22.5077C31.4576 22.5077 30.8821 22.5077 30.3252 22.5077C30.0653 22.5077 29.8054 22.4507 29.6012 22.2606C29.0999 21.8234 29.2299 20.987 29.861 20.7398C30.0096 20.6828 30.1766 20.6448 30.3437 20.6448C31.4576 20.6448 32.59 20.6448 33.7038 20.6448C34.038 20.6448 34.335 20.7398 34.5578 21.025C34.9476 21.5382 34.7063 22.2796 34.0937 22.4697C33.9637 22.5077 33.8152 22.5268 33.6667 22.5268C33.1098 22.5268 32.5714 22.5268 32.0145 22.5268V22.5077Z" fill="white"/>
<path d="M21.9715 33.0963C24.6262 33.6856 25.9442 36.2329 25.5729 38.419C25.2017 40.6812 23.4381 42.3351 21.0062 42.3541C19.0198 42.3541 16.9592 40.9093 16.5508 38.324C16.2352 36.366 17.3861 33.7426 20.1522 33.1153V32.7731C20.1522 24.1426 20.1522 15.4931 20.1522 6.8626C20.1522 6.74854 20.1522 6.63448 20.1522 6.52042C20.245 5.98814 20.6349 5.62695 21.0804 5.66497C21.5816 5.70299 21.9344 6.1022 21.9529 6.65349C21.9529 6.71052 21.9529 6.78656 21.9529 6.84359C21.9529 15.4931 21.9529 24.1616 21.9529 32.8111C21.9529 32.9062 21.9529 33.0202 21.9529 33.1153L21.9715 33.0963Z" fill="white"/>
</g>
<defs>
<clipPath id="clip0_579_521">
<rect width="25.6" height="48" fill="white" transform="translate(11)"/>
</clipPath>
</defs>
</svg>
