<svg width="48" height="48" viewBox="0 0 48 48" fill="none" xmlns="http://www.w3.org/2000/svg">
<g clip-path="url(#clip0_579_496)">
<path d="M48 23.9789C48.0212 37.1641 37.2699 47.9789 24.0635 48C10.7514 48.0212 0.0211952 37.291 3.11315e-05 23.9365C-0.0211329 10.836 10.7514 0.0211954 23.8519 3.13774e-05C37.2064 -0.0211326 47.9577 10.6667 47.9789 23.9789H48ZM3.1958 23.9789C3.17463 35.3651 12.4445 44.7619 23.7461 44.8043C35.3863 44.8466 44.7619 35.5979 44.7831 24.0635C44.7831 12.5715 35.5133 3.25929 24 3.21696C12.5715 3.17463 3.21696 12.508 3.1958 24V23.9789Z" fill="white"/>
<path d="M29.6297 38.3915C26.0953 38.3915 23.217 35.5344 23.1958 32.0423C23.1958 28.4868 26.0318 25.6085 29.5873 25.6085C33.1217 25.6085 36 28.4868 36 32.0423C36 35.5344 33.1217 38.4127 29.6297 38.4127V38.3915ZM29.6297 28.7831C27.873 28.7831 26.4127 30.2222 26.4127 31.9788C26.4127 33.7354 27.8307 35.1534 29.5662 35.1746C31.3439 35.1746 32.8043 33.7566 32.8043 32C32.8043 30.2222 31.3863 28.7831 29.6085 28.7831H29.6297Z" fill="white"/>
<path d="M9.6084 19.1958C9.6084 16.5503 11.7671 14.4127 14.4126 14.4127C17.0581 14.4127 19.2169 16.5926 19.1957 19.217C19.1957 21.8625 17.037 24 14.3915 24C11.7671 24 9.6084 21.8413 9.6084 19.1958ZM14.4338 17.6085C13.5661 17.6085 12.8253 18.3069 12.8253 19.1746C12.8253 20.0635 13.5449 20.8043 14.4338 20.8043C15.3015 20.8043 16.0211 20.0847 16.0211 19.217C16.0211 18.3492 15.3015 17.6297 14.4338 17.6085Z" fill="white"/>
<path d="M28.8042 8C30.9841 8 32.783 9.79894 32.8042 11.9788C32.8042 14.2222 31.0053 16.0212 28.7619 16C26.582 16 24.8042 14.2011 24.8042 12C24.8042 9.79894 26.6031 8 28.8042 8ZM28.783 12.8042C29.2063 12.8042 29.5873 12.4656 29.6084 12.0423C29.6084 11.5979 29.2486 11.2169 28.8042 11.2169C28.3809 11.2169 28.0211 11.5767 28 12C28 12.4233 28.3386 12.8042 28.783 12.8042Z" fill="white"/>
<path d="M19.9999 10.4127C19.9999 11.2804 19.2592 12 18.3915 12C17.5026 12 16.783 11.2381 16.8042 10.3492C16.8253 9.48149 17.5661 8.78308 18.4338 8.78308C19.3015 8.78308 20.0211 9.52382 19.9999 10.3915V10.4127Z" fill="white"/>
<path d="M31.1957 18.3915C32.0634 18.3915 32.783 19.1111 32.8041 19.9788C32.8041 20.8677 32.0634 21.6085 31.1745 21.5873C30.3068 21.5873 29.5872 20.8466 29.6084 19.9788C29.6084 19.1111 30.3279 18.3915 31.1957 18.3915Z" fill="white"/>
<path d="M40.0001 27.1958C39.1323 27.1958 38.3916 26.4974 38.3916 25.6296C38.3916 24.7407 39.1112 24 40.0001 24C40.8678 24 41.5874 24.7196 41.5874 25.5873C41.5874 26.455 40.8678 27.1746 40.0001 27.1958Z" fill="white"/>
<path d="M19.9789 28.8042C19.1112 28.8042 18.3916 28.0847 18.3916 27.2169C18.3916 26.328 19.1323 25.5873 20.0212 25.6085C20.889 25.6085 21.5874 26.3492 21.5874 27.2169C21.5874 28.0847 20.8466 28.8042 19.9789 28.8042Z" fill="white"/>
<path d="M10.3915 31.1958C9.52378 31.1958 8.8042 30.4762 8.8042 29.6085C8.8042 28.7196 9.54494 27.9789 10.4338 28C11.3016 28 12.0211 28.7408 12 29.6085C12 30.4762 11.2592 31.1958 10.3915 31.1958Z" fill="white"/>
<path d="M23.1957 39.1746C23.1957 40.0423 22.4973 40.7831 21.6296 40.8042C20.7619 40.8042 20.0211 40.1058 20 39.2593C19.9788 38.3704 20.6984 37.6296 21.5873 37.6085C22.455 37.6085 23.1746 38.328 23.1957 39.1958V39.1746Z" fill="white"/>
</g>
<defs>
<clipPath id="clip0_579_496">
<rect width="48" height="48" fill="white"/>
</clipPath>
</defs>
</svg>
