<svg width="48" height="48" viewBox="0 0 48 48" fill="none" xmlns="http://www.w3.org/2000/svg">
<g clip-path="url(#clip0_579_515)">
<path d="M47.9999 21.8753C46.9428 23.1777 45.8669 24.4801 44.8099 25.7637C44.7155 25.8769 44.6212 25.9902 44.5268 26.1223C44.3947 26.2922 44.1493 26.311 43.9794 26.1789C42.5449 25.0275 41.1292 23.8761 39.6758 22.7058C39.5059 22.5737 39.4871 22.3283 39.6192 22.1585C40.0533 21.6111 40.4875 21.0826 40.9216 20.5352C41.0537 20.3653 41.2991 20.3464 41.469 20.4786C41.7521 20.7051 42.1674 20.4597 42.0919 20.1011C40.865 14.1742 35.7686 7.86983 27.4635 6.2088C22.6503 5.24616 18.1202 6.0578 14.0054 8.77584C10.0227 11.3995 7.39899 15.0047 6.07771 19.6103C6.02109 19.8179 5.81346 19.9312 5.60583 19.8934C4.92632 19.7235 4.28456 19.5725 3.62392 19.4027C3.41629 19.346 3.28416 19.1384 3.34079 18.9308C5.60583 10.6256 12.25 4.22689 21.4611 3.16987C27.086 2.52811 32.2578 3.79275 36.8445 7.15257C41.2236 10.3425 43.7906 14.7027 45.0175 19.95C45.093 20.2709 45.4894 20.3653 45.6971 20.1199L45.7726 20.0256C45.9047 19.8745 46.1501 19.8368 46.3199 19.9689C46.8673 20.4031 47.3958 20.8183 47.9432 21.2336C47.9621 21.479 47.981 21.63 48.0187 21.8753H47.9999Z" fill="white"/>
<path d="M20.4421 13.0417C21.5369 13.0417 22.6505 13.0417 23.7453 13.0417C24.0473 13.0417 24.1983 13.1361 24.3304 13.3814C25.1421 14.7971 25.9726 16.2127 26.7654 17.6284C26.9164 17.8926 27.0862 17.987 27.3882 17.987C29.0493 17.987 30.6914 17.987 32.3525 17.987C32.6356 17.987 32.8055 18.0625 32.9565 18.3268C34.0512 20.2521 35.1649 22.1774 36.2785 24.0838C36.4107 24.3103 36.4295 24.4801 36.2785 24.7255C35.1649 26.6319 34.0512 28.5572 32.9565 30.4825C32.8055 30.7656 32.6167 30.8411 32.3147 30.8411C30.7292 30.8411 29.1437 30.8411 27.5392 30.8223C27.0862 30.8223 26.8786 30.9733 26.671 31.3508C25.8971 32.7287 25.1043 34.0688 24.3304 35.4467C24.1794 35.711 24.0096 35.8053 23.7076 35.8053C21.4991 35.8053 19.3096 35.8053 17.1012 35.8053C16.8181 35.8053 16.6482 35.711 16.516 35.4656C15.4213 33.5592 14.3265 31.6528 13.2129 29.7464C13.0619 29.501 13.0619 29.3122 13.2129 29.0669C14.0434 27.6701 14.8361 26.2544 15.6478 24.8765C15.8365 24.5745 15.8554 24.348 15.6478 24.0271C14.8173 22.6492 14.0434 21.2525 13.2317 19.8746C13.0807 19.6103 13.043 19.4027 13.2317 19.1195C14.3454 17.232 15.4213 15.3445 16.516 13.4381C16.667 13.1738 16.8369 13.0794 17.1389 13.0794C18.2337 13.0983 19.3473 13.0794 20.4421 13.0794V13.0417ZM20.4421 22.9701C21.0084 22.9701 21.5746 22.989 22.1409 22.9701C22.3108 22.9701 22.5562 22.8191 22.6505 22.6681C23.2357 21.7055 23.8019 20.724 24.3493 19.7236C24.4248 19.5726 24.4248 19.2894 24.3493 19.1384C23.8019 18.138 23.2357 17.1565 22.6505 16.1939C22.5562 16.0617 22.3485 15.9107 22.1975 15.9107C21.0273 15.8919 19.8759 15.8919 18.7056 15.9107C18.5546 15.9107 18.347 16.0429 18.2715 16.1561C17.6674 17.1565 17.1012 18.1569 16.5349 19.1762C16.4594 19.3083 16.4594 19.5537 16.5349 19.6669C17.1012 20.6862 17.6863 21.6866 18.2715 22.687C18.347 22.8191 18.5546 22.9324 18.7056 22.9324C19.2907 22.9701 19.8759 22.9324 20.461 22.9324L20.4421 22.9701ZM20.4421 32.9174C20.9895 32.9174 21.5369 32.9174 22.1031 32.9174C22.3674 32.9174 22.5373 32.8608 22.6694 32.6154C23.2168 31.6339 23.8019 30.6524 24.3493 29.6709C24.4248 29.5199 24.4248 29.2367 24.3493 29.0857C23.8208 28.1042 23.2357 27.1416 22.6883 26.1789C22.5562 25.9524 22.424 25.8392 22.1409 25.8392C21.0084 25.8392 19.8759 25.8392 18.7433 25.858C18.5735 25.858 18.3281 26.009 18.2337 26.1601C17.6486 27.1227 17.0823 28.1042 16.5349 29.1046C16.4594 29.2556 16.4594 29.5387 16.5349 29.6897C17.0823 30.6901 17.6486 31.6716 18.2337 32.6343C18.3281 32.7853 18.5735 32.8985 18.7433 32.9174C19.3096 32.9552 19.8759 32.9174 20.4421 32.9174ZM29.0682 27.9343C29.6533 27.9343 30.2384 27.9343 30.8047 27.9343C30.9557 27.9343 31.1633 27.8211 31.2388 27.689C31.8428 26.6886 32.428 25.6882 32.9753 24.6689C33.0508 24.5368 33.0508 24.2914 32.9753 24.1781C32.4091 23.1589 31.824 22.1585 31.2199 21.1581C31.1444 21.026 30.9368 20.9127 30.7858 20.9127C29.6155 20.8938 28.4641 20.8938 27.2939 20.9127C27.1429 20.9127 26.9352 21.026 26.8597 21.1581C26.2557 22.1585 25.6706 23.1589 25.1043 24.1781C25.0288 24.3103 25.0288 24.5556 25.1043 24.6878C25.6517 25.6882 26.2368 26.6886 26.822 27.6701C26.9164 27.8211 27.1429 27.9532 27.3316 27.9532C27.8979 27.991 28.4641 27.9532 29.0304 27.9532L29.0682 27.9343Z" fill="white"/>
<path d="M42.3943 28.9159C43.1304 29.1046 43.8288 29.2745 44.5272 29.4444C44.6971 29.4821 44.7914 29.652 44.7537 29.8219C42.7718 37.5419 36.4108 44.5069 26.6711 45.6583C15.8555 46.9418 5.45521 40.2599 3.02029 28.7648C2.96367 28.5195 2.64279 28.444 2.49178 28.6327L2.28416 28.8781C2.1709 29.0102 1.98215 29.0291 1.85002 28.9159C1.26489 28.444 0.679751 27.9721 0.0946154 27.5002C-0.037512 27.3869 -0.0563874 27.1982 0.0379894 27.0661C1.22714 25.5938 2.39741 24.1404 3.6243 22.6304C3.73756 22.4982 3.92631 22.4794 4.05844 22.5926C5.53071 23.7818 7.00299 24.9709 8.49414 26.1789C8.62627 26.2922 8.64515 26.4809 8.53189 26.6131C8.06001 27.1982 7.58813 27.7833 7.11624 28.3685C7.00299 28.5006 6.81424 28.5195 6.68211 28.4251L6.43673 28.2363C6.21023 28.0665 5.88935 28.2363 5.94597 28.5383C6.98412 34.2009 11.8728 40.7318 20.2157 42.5627C25.0667 43.6197 29.6723 42.8836 33.8815 40.2033C37.9774 37.5796 40.6766 33.8989 41.9979 29.1801C42.0356 29.0291 42.2055 28.9159 42.3754 28.9725L42.3943 28.9159Z" fill="white"/>
</g>
<defs>
<clipPath id="clip0_579_515">
<rect width="48" height="48" fill="white"/>
</clipPath>
</defs>
</svg>
