<svg width="48" height="48" viewBox="0 0 48 48" fill="none" xmlns="http://www.w3.org/2000/svg">
<g clip-path="url(#clip0_579_509)">
<path d="M24.7512 0C25.1321 0.359788 25.5343 0.740741 25.9364 1.10053C30.5713 5.29101 34.7829 9.82011 38.0845 15.1534C40.0951 18.3915 41.6824 21.8201 42.4866 25.5661C44.6877 35.746 38.0634 45.7566 27.8411 47.6825C17.7671 49.5873 7.92579 42.709 6.25383 32.6561C5.59774 28.7407 6.25383 25.0159 7.65065 21.3757C9.23795 17.2487 11.6295 13.5661 14.3596 10.1164C17.1745 6.53968 20.3914 3.36508 23.7988 0.359788C23.9258 0.253968 24.0316 0.148148 24.1374 0.021164C24.3702 0.021164 24.5184 0.021164 24.7512 0.021164V0ZM24.6454 3.7037C24.5395 3.59788 24.3491 3.59788 24.2432 3.7037C20.9628 6.70899 17.9575 9.94709 15.312 13.545C12.9417 16.7831 10.9099 20.2116 9.70356 24.0635C8.81467 26.8995 8.51838 29.7778 9.1533 32.6984C10.9946 41.1429 18.8887 46.4127 27.3755 44.8889C34.402 43.619 39.8623 37.2698 40.0528 30.1164C40.1374 27.2804 39.4813 24.5926 38.4231 21.9683C37.0263 18.5185 35.0369 15.4074 32.7723 12.4656C30.3385 9.31217 27.6083 6.4127 24.6665 3.7037H24.6454Z" fill="white"/>
<path d="M24.6034 12.6772C24.815 12.8889 25.0267 13.0794 25.2595 13.291C27.8203 15.619 30.1695 18.1376 31.9896 21.0794C33.1113 22.8783 33.9791 24.7831 34.4235 26.8571C35.6299 32.5079 31.9685 38.0529 26.2965 39.1323C20.7092 40.1905 15.2489 36.381 14.3177 30.7936C13.9579 28.6138 14.3177 26.5608 15.1008 24.5291C15.9896 22.2434 17.3018 20.1905 18.8256 18.2857C20.3918 16.2963 22.1695 14.5397 24.0531 12.8677C24.1166 12.8042 24.1801 12.7407 24.2436 12.6772C24.3706 12.6772 24.4552 12.6772 24.5822 12.6772H24.6034ZM24.5399 15.9577C24.5399 15.9577 24.3918 15.8942 24.3283 15.9577C22.6986 17.4392 21.196 19.0688 19.905 20.8466C18.7198 22.455 17.7251 24.1481 17.1325 26.0741C16.6881 27.4709 16.5399 28.9101 16.8574 30.3492C17.7674 34.5397 21.6828 37.1429 25.8944 36.4021C29.3865 35.7672 32.0955 32.6138 32.1801 29.0794C32.2224 27.6614 31.905 26.328 31.3759 25.037C30.6775 23.3227 29.6828 21.7778 28.5611 20.3175C27.3547 18.7513 26.0002 17.3122 24.5399 15.9577Z" fill="white"/>
</g>
<defs>
<clipPath id="clip0_579_509">
<rect width="36.8889" height="48" fill="white" transform="translate(6)"/>
</clipPath>
</defs>
</svg>
