<svg width="200" height="54" viewBox="0 0 200 54" fill="none" xmlns="http://www.w3.org/2000/svg">
<path d="M128.358 9.67633C128.94 9.67633 129.52 9.45262 129.962 9.00818L135.062 3.88961C135.947 3.00072 135.947 1.55702 135.062 0.668132C134.173 -0.220757 132.738 -0.220757 131.849 0.668132L126.75 5.7867C125.865 6.67559 125.865 8.11929 126.75 9.00818C127.193 9.45262 127.775 9.67633 128.355 9.67633H128.358Z" fill="white"/>
<path d="M42.6394 16.3551C42.6394 14.7414 41.3348 13.4319 39.7272 13.4319H13.5684C6.27316 13.4319 0.335938 19.3916 0.335938 26.7175C0.335938 34.0434 6.27316 40.0001 13.5684 40.0001H39.7242C41.3319 40.0001 42.6364 38.6906 42.6364 37.0769C42.6364 35.4632 41.3319 34.1537 39.7242 34.1537H13.5684C9.48246 34.1537 6.15727 30.8159 6.15727 26.7145C6.15727 22.6131 9.48246 19.2753 13.5684 19.2753H39.7242C41.3319 19.2753 42.6364 17.9658 42.6364 16.3521L42.6394 16.3551Z" fill="white"/>
<path d="M13.5684 23.7942C11.9608 23.7942 10.6562 25.1037 10.6562 26.7174C10.6562 28.3311 11.9608 29.6406 13.5684 29.6406H36.1732C37.7808 29.6406 39.0854 28.3311 39.0854 26.7174C39.0854 25.1037 37.7808 23.7942 36.1732 23.7942H13.5684Z" fill="white"/>
<path d="M152.059 16.3551C152.059 14.7414 150.754 13.4319 149.147 13.4319H122.991C115.693 13.4319 109.758 19.3916 109.758 26.7145C109.758 34.0374 115.696 39.9971 122.991 39.9971H149.147C150.754 39.9971 152.059 38.6877 152.059 37.0739C152.059 35.4602 150.754 34.1508 149.147 34.1508H122.991C118.905 34.1508 115.58 30.8129 115.58 26.7115C115.58 22.6101 118.905 19.2723 122.991 19.2723H149.147C150.754 19.2723 152.059 17.9628 152.059 16.3491V16.3551Z" fill="white"/>
<path d="M122.991 23.7942C121.383 23.7942 120.079 25.1037 120.079 26.7174C120.079 28.3311 121.383 29.6406 122.991 29.6406H145.596C147.203 29.6406 148.508 28.3311 148.508 26.7174C148.508 25.1037 147.203 23.7942 145.596 23.7942H122.991Z" fill="white"/>
<path d="M196.752 13.4319H160.272C158.665 13.4319 157.36 14.7414 157.36 16.3551C157.36 17.9688 158.665 19.2783 160.272 19.2783H175.6V37.0769C175.6 38.6906 176.904 40.0001 178.512 40.0001C180.12 40.0001 181.424 38.6906 181.424 37.0769V19.2783H196.752C198.359 19.2783 199.664 17.9688 199.664 16.3551C199.664 14.7414 198.359 13.4319 196.752 13.4319Z" fill="white"/>
<path d="M95.153 13.4287C94.2228 13.4287 93.2898 13.6465 92.4548 14.0551C91.6197 14.4638 90.8769 15.0693 90.3033 15.806L76.2745 33.8642C76.1021 34.0849 75.8823 34.1327 75.7277 34.1327C75.5732 34.1327 75.3533 34.0849 75.181 33.8642L61.1521 15.806C60.5816 15.0693 59.8357 14.4638 59.0007 14.0551C58.1657 13.6465 57.2326 13.4287 56.3025 13.4287C52.9119 13.4287 50.1543 16.1968 50.1543 19.6002V37.0827C50.1543 38.6934 51.4558 39.9999 53.0605 39.9999C54.6652 39.9999 55.9667 38.6934 55.9667 37.0827V19.6002C55.9667 19.4153 56.1183 19.2632 56.3025 19.2632C56.4065 19.2632 56.5016 19.3109 56.567 19.3914L70.5958 37.4496C71.8379 39.0484 73.7071 39.9641 75.7277 39.9641C77.7484 39.9641 79.6175 39.0484 80.8597 37.4496L94.8885 19.3914C94.9539 19.3079 95.0489 19.2632 95.153 19.2632C95.3372 19.2632 95.4887 19.4153 95.4887 19.6002V37.0827C95.4887 38.6934 96.7903 39.9999 98.3949 39.9999C99.9996 39.9999 101.301 38.6934 101.301 37.0827V19.6002C101.301 16.1968 98.5435 13.4287 95.153 13.4287Z" fill="white"/>
</svg>
