<svg width="64" height="64" viewBox="0 0 64 64" fill="none" xmlns="http://www.w3.org/2000/svg">
<rect width="64" height="64" rx="32" fill="#2F2F33"/>
<path d="M32.55 40.5901C31.76 40.5901 30.89 40.3101 30.02 39.7601L27.1 37.9301C26.9 37.8101 26.67 37.7401 26.44 37.7401H25C22.58 37.7401 21.25 36.4101 21.25 33.9901V29.9901C21.25 27.5701 22.58 26.2401 25 26.2401H26.43C26.66 26.2401 26.89 26.1701 27.09 26.0501L30.01 24.2201C31.47 23.3101 32.89 23.1401 34.01 23.7601C35.13 24.3801 35.74 25.6701 35.74 27.4001V36.5701C35.74 38.2901 35.12 39.5901 34.01 40.2101C33.57 40.4701 33.07 40.5901 32.55 40.5901ZM25 27.7501C23.42 27.7501 22.75 28.4201 22.75 30.0001V34.0001C22.75 35.5801 23.42 36.2501 25 36.2501H26.43C26.95 36.2501 27.45 36.3901 27.89 36.6701L30.81 38.5001C31.77 39.1001 32.68 39.2601 33.29 38.9201C33.9 38.5801 34.25 37.7301 34.25 36.6001V27.4101C34.25 26.2701 33.9 25.4201 33.29 25.0901C32.68 24.7501 31.77 24.9001 30.81 25.5101L27.88 27.3301C27.45 27.6101 26.94 27.7501 26.43 27.7501H25Z" fill="white"/>
<path d="M38 36.7498C37.84 36.7498 37.69 36.6998 37.55 36.5998C37.22 36.3498 37.15 35.8798 37.4 35.5498C38.97 33.4598 38.97 30.5398 37.4 28.4498C37.15 28.1198 37.22 27.6498 37.55 27.3998C37.88 27.1498 38.35 27.2198 38.6 27.5498C40.56 30.1698 40.56 33.8298 38.6 36.4498C38.45 36.6498 38.23 36.7498 38 36.7498Z" fill="white"/>
<path d="M39.83 39.2498C39.67 39.2498 39.52 39.1998 39.38 39.0998C39.05 38.8498 38.98 38.3798 39.23 38.0498C41.9 34.4898 41.9 29.5098 39.23 25.9498C38.98 25.6198 39.05 25.1498 39.38 24.8998C39.71 24.6498 40.18 24.7198 40.43 25.0498C43.5 29.1398 43.5 34.8598 40.43 38.9498C40.29 39.1498 40.06 39.2498 39.83 39.2498Z" fill="white"/>
</svg>
